<svg xmlns="http://www.w3.org/2000/svg" viewBox="65 150 420 170" width="370" height="170">
  <g fill-rule="none" stroke="none" stroke-width="1" stroke-linecap="butt"
    stroke-linejoin="miter" stroke-miterlimit="10" stroke-dasharray="" stroke-dashoffset="0"
    text-anchor="none"
  >
    <g fill-rule="nonzero">
      <g id="logo-unde" stroke-width="2">
        <path
          d="M105.50936,284.62114l0.43114,0.53892h11.5329c-1.40119,-0.80838 -2.96406,-3.55688 -3.17963,-7.59878c0,-0.80838 -0.05389,-1.61676 -0.05389,-2.37125v-15.35924l-0.48503,-0.53892l-11.5329,0.59281v0.10778c1.40119,0.80838 2.96406,3.17963 3.17963,7.27543c0.10778,2.20957 0.10778,4.41915 0.10778,6.62872v4.41915c-1.13173,1.56287 -2.96406,2.64071 -4.90418,2.64071c-1.02395,0 -1.88622,-0.43114 -2.47904,-1.13173c-0.59281,-0.75449 -0.86227,-1.94011 -0.86227,-3.50298v-16.38319l-0.43114,-0.6467l-12.44907,0.6467v2.42514c1.94011,0.10778 4.0958,0.7006 4.0958,3.07185v11.10177c0,2.80239 0.7006,5.01196 2.10179,6.57483c1.3473,1.56287 3.34131,2.31736 5.98202,2.31736c1.45509,0 2.58682,-0.10778 3.28742,-0.37724c2.20957,-0.75449 3.98801,-1.77844 5.65867,-3.44909z"
        ></path>
        <path
          d="M139.03023,268.29185c0,3.01796 -0.05389,6.0898 -0.05389,9.10776c0,4.20358 -1.45509,6.73651 -2.7485,7.65267v0.10778h14.11972v-0.10778c-1.23952,-0.91617 -2.64071,-3.3952 -2.64071,-7.65267c0,-3.34131 0.05389,-6.52094 0.05389,-9.86225c0,-3.34131 -1.3473,-6.68262 -4.68861,-8.02992c-1.02395,-0.43114 -2.26347,-0.6467 -3.66466,-0.6467c-1.77844,0 -4.14969,0.53892 -5.71256,1.50898c-1.13173,0.75449 -2.10179,1.67065 -3.17963,2.58682l0.10778,-3.17963l-0.53892,-0.53892l-12.28739,0.7006v2.37125c1.88622,0.16168 4.0958,0.91617 4.0958,3.17963v11.91015c0,4.20358 -1.50898,6.73651 -2.80239,7.65267v0.10778h14.11972v-0.10778c-1.23952,-0.91617 -2.64071,-3.3952 -2.64071,-7.65267c0,-3.66466 0.05389,-7.32932 0.05389,-10.94009c0,0 1.94011,-2.85628 5.06585,-2.85628c2.7485,0 3.34131,2.42514 3.34131,4.68861z"
        ></path>
        <path
          d="M171.41936,284.62114l0.48503,0.53892h11.47901c-1.40119,-0.80838 -3.28742,-3.50298 -3.28742,-7.59878v-31.20351l-0.53892,-0.48503l-13.79637,0.59281v2.42514c2.58682,0.21557 5.60477,0.59281 5.60477,3.77244v7.54489c-1.72455,-0.86227 -3.98801,-1.3473 -6.1437,-1.3473c-1.83233,0 -3.61077,0.32335 -5.06585,0.97006c-4.79639,2.10179 -7.76046,6.7904 -7.76046,12.01793c0,4.0419 1.07784,7.27543 3.28742,9.75446c2.26347,2.53293 5.06585,3.82634 8.46105,3.82634c2.53293,0 5.4431,-1.13173 7.27543,-2.96406zM171.36547,279.33972c-1.02395,1.18563 -2.58682,1.94011 -4.0958,1.94011c-0.86227,0 -1.67065,-0.21557 -2.42514,-0.75449c-2.58682,-1.61676 -2.96406,-5.49699 -2.96406,-8.24549c0,-3.12574 0.75449,-10.34728 5.28142,-10.34728c2.37125,0 3.55688,1.56287 4.20358,3.66466z"
        ></path>
        <path
          d="M206.77255,283.43552c6.1437,-3.07185 10.99398,-10.34728 10.99398,-19.0239c-0.91617,-11.96404 -9.75446,-17.62271 -17.83827,-17.62271c-3.3952,0 -5.01196,2.37125 -5.01196,4.47304c0,1.99401 1.40119,3.88023 4.0419,3.88023c0.6467,0 1.40119,-0.10778 2.20957,-0.37724c1.13173,-0.37724 2.26347,-0.59281 3.34131,-0.59281c6.0898,0 10.56284,5.92813 10.56284,12.34128c0,1.61676 -0.32335,3.23352 -0.91617,4.85029c-1.50898,3.93412 -6.46705,8.19159 -10.45506,9.5389c-0.7006,0.26946 -1.50898,0.37724 -2.31736,0.37724c-2.15568,0 -4.41915,-0.86227 -5.65867,-2.47904c-1.23952,-1.61676 -1.88622,-4.0419 -1.94011,-7.22154h16.70654v-1.88622c0,-1.50898 -0.21557,-2.85628 -0.7006,-4.20358c-0.43114,-1.29341 -1.13173,-2.47904 -2.10179,-3.3952c-0.48503,-0.53892 -1.02395,-0.97006 -1.61676,-1.3473c-0.6467,-0.43114 -1.3473,-0.75449 -2.15568,-1.02395c-0.75449,-0.32335 -1.61676,-0.48503 -2.58682,-0.6467c-0.97006,-0.16168 -2.0479,-0.21557 -3.23352,-0.21557c-2.15568,0 -4.0958,0.32335 -5.82034,1.07784c-1.77844,0.75449 -3.23352,1.72455 -4.41915,2.96406c-1.13173,1.18563 -1.99401,2.58682 -2.64071,4.14969c-0.59281,1.56287 -0.91617,3.23352 -0.91617,4.95807c0,1.94011 0.26946,3.71855 0.86227,5.33531c0.59281,1.61676 1.45509,3.01796 2.64071,4.20358c1.18563,1.18563 2.64071,2.15568 4.47304,2.85628c1.83233,0.7006 3.93412,1.07784 6.46705,1.07784c1.45509,0 2.7485,-0.21557 3.93412,-0.53892c1.18563,-0.32335 3.01796,-0.86227 4.0958,-1.50898zM193.78457,268.88466c0.10778,-2.58682 0.48503,-4.47304 1.18563,-5.65867c0.7006,-1.18563 1.61676,-1.72455 2.7485,-1.72455c1.23952,0 2.15568,0.7006 2.6946,2.10179c0.21557,0.6467 0.37724,1.45509 0.48503,2.37125c0.10778,0.97006 0.16168,1.88622 0.16168,2.80239z"
        ></path>
      </g>
      <path
        d="M269.28735,277.3996c0,4.20358 -1.50898,6.73651 -2.80239,7.65267v0.10778h14.17361v-0.10778c-1.23952,-0.91617 -2.64071,-3.3952 -2.64071,-7.65267c0,-3.28742 0.05389,-6.46705 0.05389,-9.75446c0,-2.80239 -0.75449,-5.01196 -2.10179,-6.52094c-1.50898,-1.61676 -3.77244,-2.26347 -6.03591,-2.26347c-1.13173,0 -2.20957,0.16168 -3.23352,0.43114c-2.91017,0.86227 -3.88023,2.15568 -6.03591,3.98801c-0.59281,-1.40119 -1.50898,-2.47904 -2.80239,-3.23352c-1.3473,-0.80838 -3.07185,-1.18563 -4.79639,-1.18563c-1.07784,0 -2.15568,0.16168 -3.12574,0.43114c-2.47904,0.7006 -3.82634,1.94011 -5.60477,3.61077l0.10778,-3.12574l-0.53892,-0.53892l-12.28739,0.7006v2.37125c1.88622,0.21557 4.0958,0.80838 4.0958,3.17963v11.91015c0,4.20358 -1.50898,6.73651 -2.80239,7.65267v0.10778h14.11972v-0.10778c-1.23952,-0.91617 -2.64071,-3.3952 -2.64071,-7.65267c0,-3.66466 0.05389,-7.27543 0.05389,-10.94009c1.07784,-1.72455 2.7485,-2.85628 4.85029,-2.85628c2.10179,0 3.12574,1.56287 3.12574,4.7425c0,3.07185 0.05389,5.98202 0.05389,9.05387c0,4.20358 -1.50898,6.73651 -2.80239,7.65267v0.10778h14.17361v-0.10778c-1.23952,-0.91617 -2.64071,-3.3952 -2.64071,-7.65267c0,-3.66466 0.05389,-7.27543 0.05389,-10.94009c1.07784,-1.67065 2.80239,-2.85628 4.85029,-2.85628c2.64071,0 3.17963,2.58682 3.17963,4.7425z"
      ></path>
      <path
        d="M302.2154,285.16006c-0.86227,-0.10778 -1.45509,-0.37724 -1.88622,-0.6467c-0.91617,-0.59281 -1.56287,-1.40119 -1.99401,-2.37125c-2.53293,2.42514 -4.95807,3.28742 -8.46105,3.28742c-3.82634,0 -7.38321,-2.53293 -7.38321,-6.46705c0,-3.98801 2.26347,-6.03591 5.76645,-7.27543c2.85628,-1.02395 6.84429,-2.15568 9.80836,-3.17963v-2.15568c0,-2.80239 -1.29341,-5.01196 -3.3952,-5.01196c-0.75449,0 -2.58682,0.59281 -2.47904,0.86227c0.43114,0.91617 0.6467,2.10179 0.6467,3.07185c0,1.45509 -1.56287,2.80239 -3.23352,3.34131c-0.6467,0.21557 -1.40119,0.32335 -2.20957,0.32335c-1.3473,0 -2.6946,-0.32335 -3.44909,-1.07784c-0.75449,-0.7006 -1.18563,-1.72455 -1.18563,-2.7485c0,-0.48503 0.10778,-1.02395 0.32335,-1.45509c1.3473,-2.58682 4.63472,-3.88023 7.27543,-4.41915c1.3473,-0.26946 3.88023,-0.43114 5.49699,-0.43114c2.6946,0 5.49699,0.43114 7.491,1.56287c2.64071,1.50898 3.50298,4.14969 3.50298,7.00597c0,2.26347 -0.05389,4.52693 -0.10778,6.73651v3.28742c0,4.25747 1.40119,6.73651 2.64071,7.65267v0.10778zM298.06571,271.41759c-1.3473,0.48503 -3.28742,1.23952 -4.47304,2.15568c-1.23952,0.97006 -1.83233,2.47904 -1.83233,4.0419c0,2.10179 1.29341,3.3952 2.91017,3.3952c0.59281,0 1.23952,-0.16168 1.88622,-0.53892c0.53892,-0.32335 0.97006,-0.75449 1.40119,-1.23952zM287.2873,256.11224h0.7006c2.47904,-1.50898 5.01196,-2.26347 7.491,-2.26347c2.42514,0 4.85029,0.75449 7.27543,2.26347h0.7006l-7.00597,-8.62273h-2.10179z"
      ></path>
      <path
        d="M331.10155,268.29185c0,3.01796 -0.05389,6.0898 -0.05389,9.10776c0,4.20358 -1.45509,6.73651 -2.7485,7.65267v0.10778h14.11972v-0.10778c-1.23952,-0.91617 -2.64071,-3.3952 -2.64071,-7.65267c0,-3.34131 0.05389,-6.52094 0.05389,-9.86225c0,-3.34131 -1.3473,-6.68262 -4.68861,-8.02992c-1.02395,-0.43114 -2.26347,-0.6467 -3.66466,-0.6467c-1.77844,0 -4.14969,0.53892 -5.71256,1.50898c-1.13173,0.75449 -2.10179,1.67065 -3.17963,2.58682l0.10778,-3.17963l-0.53892,-0.53892l-12.28739,0.7006v2.37125c1.88622,0.16168 4.0958,0.91617 4.0958,3.17963v11.91015c0,4.20358 -1.50898,6.73651 -2.80239,7.65267v0.10778h14.11972v-0.10778c-1.23952,-0.91617 -2.64071,-3.3952 -2.64071,-7.65267c0,-3.66466 0.05389,-7.32932 0.05389,-10.94009c0,0 1.94011,-2.85628 5.06585,-2.85628c2.7485,0 3.34131,2.42514 3.34131,4.68861z"
      ></path>
      <path
        d="M352.11945,284.40557c1.67065,0.6467 3.93412,1.02395 6.0898,1.02395c1.45509,0 2.85628,-0.16168 3.98801,-0.53892c3.55688,-1.13173 6.1437,-3.55688 7.81435,-6.89818l-2.31736,-1.61676c-0.97006,1.67065 -1.94011,2.91017 -3.01796,3.66466c-1.13173,0.80838 -2.37125,1.18563 -3.61077,1.18563c-1.99401,0 -3.98801,-0.97006 -5.22753,-2.58682c-1.3473,-1.77844 -1.99401,-4.0419 -1.99401,-6.89818c0,-2.53293 0.26946,-5.87424 1.61676,-8.1377c0.48503,-0.80838 1.02395,-1.3473 1.56287,-1.67065c0.53892,-0.26946 1.23952,-0.48503 1.88622,-0.48503c0.6467,0 1.29341,0.21557 1.72455,0.7006c-0.37724,1.29341 -0.86227,2.37125 -0.86227,4.0958c0,2.53293 2.47904,3.50298 4.63472,3.50298c2.91017,0 4.58083,-1.83233 4.58083,-4.14969c0,-0.91617 -0.26946,-1.88622 -0.80838,-2.85628c-1.88622,-3.17963 -6.03591,-3.93412 -9.43111,-3.93412c-7.76046,0 -14.49697,5.28142 -14.49697,13.25745c0,5.71256 2.37125,10.23949 7.86824,12.34128z"
      ></path>
      <path
        d="M392.37683,285.16006c-0.86227,-0.10778 -1.45509,-0.37724 -1.88622,-0.6467c-0.91617,-0.59281 -1.56287,-1.40119 -1.99401,-2.37125c-2.53293,2.42514 -4.95807,3.28742 -8.46105,3.28742c-3.82634,0 -7.38321,-2.53293 -7.38321,-6.46705c0,-3.98801 2.26347,-6.03591 5.76645,-7.27543c2.85628,-1.02395 6.84429,-2.15568 9.80836,-3.17963v-2.15568c0,-2.80239 -1.29341,-5.01196 -3.3952,-5.01196c-0.75449,0 -2.58682,0.59281 -2.47904,0.86227c0.43114,0.91617 0.6467,2.10179 0.6467,3.07185c0,1.45509 -1.56287,2.80239 -3.23352,3.34131c-0.6467,0.21557 -1.40119,0.32335 -2.20957,0.32335c-1.3473,0 -2.6946,-0.32335 -3.44909,-1.07784c-0.75449,-0.7006 -1.18563,-1.72455 -1.18563,-2.7485c0,-0.48503 0.10778,-1.02395 0.32335,-1.45509c1.3473,-2.58682 4.63472,-3.88023 7.27543,-4.41915c1.3473,-0.26946 3.88023,-0.43114 5.49699,-0.43114c2.6946,0 5.49699,0.43114 7.491,1.56287c2.64071,1.50898 3.50298,4.14969 3.50298,7.00597c0,2.26347 -0.05389,4.52693 -0.10778,6.73651v3.28742c0,4.25747 1.40119,6.73651 2.64071,7.65267v0.10778zM388.22714,271.41759c-1.3473,0.48503 -3.28742,1.23952 -4.47304,2.15568c-1.23952,0.97006 -1.83233,2.47904 -1.83233,4.0419c0,2.10179 1.29341,3.3952 2.91017,3.3952c0.59281,0 1.23952,-0.16168 1.88622,-0.53892c0.53892,-0.32335 0.97006,-0.75449 1.40119,-1.23952zM377.44873,247.59729c1.18563,3.3952 4.20358,5.92813 7.86824,5.92813c0.86227,0 1.77844,-0.16168 2.6946,-0.43114c3.07185,-1.02395 4.58083,-2.6946 5.60477,-5.49699c-0.7006,0.05389 -1.29341,0.10778 -1.88622,0.16168c-1.29341,1.02395 -3.61077,1.67065 -6.19759,1.67065c-2.64071,0 -4.90418,-0.7006 -6.25148,-1.72455c-0.53892,-0.05389 -1.18563,-0.10778 -1.83233,-0.10778z"
      ></path>
      <path
        d="M437.70005,268.34574c0,3.01796 0.05389,6.03591 0.05389,9.05387c0,4.25747 -1.50898,6.7904 -2.80239,7.65267v0.10778c3.50298,0 7.05986,0 10.61674,0c3.55688,0 7.92213,-1.40119 10.94009,-3.3952c5.98202,-3.88023 9.10776,-9.91614 9.10776,-15.52091c0,-1.3473 -0.16168,-2.6946 -0.53892,-3.93412c-0.75449,-2.6946 -2.7485,-3.82634 -4.7425,-3.82634c-2.31736,0 -4.58083,1.61676 -4.58083,4.0419c0,0.91617 0.32335,1.94011 1.02395,3.01796c1.18563,1.77844 1.72455,3.66466 1.72455,5.49699c0,3.17963 -1.61676,6.1437 -4.20358,8.24549c-1.99401,1.61676 -3.77244,2.58682 -5.11975,2.58682c-1.67065,0 -2.6946,-1.50898 -2.6946,-5.01196v-9.21554c0,-2.80239 -0.7006,-5.01196 -2.10179,-6.52094c-1.50898,-1.61676 -3.71855,-2.26347 -5.92813,-2.26347c-1.13173,0 -2.31736,0.16168 -3.34131,0.48503c-2.85628,0.86227 -3.88023,2.10179 -5.98202,3.93412c-0.59281,-1.40119 -1.56287,-2.42514 -2.80239,-3.17963c-1.3473,-0.86227 -3.07185,-1.23952 -4.7425,-1.23952c-1.13173,0 -2.26347,0.16168 -3.23352,0.43114c-2.47904,0.75449 -3.82634,1.94011 -5.60477,3.61077l0.10778,-3.12574l-0.53892,-0.48503l-12.28739,0.6467v2.37125c1.88622,0.21557 4.0958,0.86227 4.0958,3.23352v11.85625c0,4.25747 -1.50898,6.7904 -2.80239,7.65267v0.10778h14.11972v-0.10778c-1.23952,-0.86227 -2.64071,-3.34131 -2.64071,-7.65267c0,-3.66466 0.05389,-7.27543 0.05389,-10.8862c1.07784,-1.77844 2.7485,-2.91017 4.85029,-2.91017c2.10179,0 3.12574,1.61676 3.12574,4.7425c0,3.07185 0.05389,5.98202 0.05389,9.05387c0,4.25747 -1.50898,6.7904 -2.80239,7.65267v0.10778h14.17361v-0.10778c-1.23952,-0.86227 -2.64071,-3.34131 -2.64071,-7.65267c0,-3.66466 0.05389,-7.22154 0.05389,-10.8862c1.07784,-1.72455 2.80239,-2.91017 4.85029,-2.91017c2.6946,0 3.17963,2.58682 3.17963,4.7425z"
      ></path>
    </g>
    <g
      id="logo-pacman"
      fill-rule="evenodd">
      <path
        d="M291.65595,179.40245l-1.26319,-2.25151c-1.84632,-3.30171 -4.15053,-6.34257 -6.8476,-9.04012c-7.79288,-7.79675 -18.15447,-12.08678 -29.17363,-12.08678c-11.02255,0 -21.38389,4.29003 -29.17726,12.08678c-7.79192,7.78974 -12.0834,18.15084 -12.0834,29.17363c0,11.02159 4.29124,21.37954 12.0834,29.17726c7.79312,7.79337 18.15447,12.08315 29.17726,12.08315c11.01917,0 21.38075,-4.28978 29.17363,-12.08799c2.69707,-2.69707 5.00153,-5.73793 6.8476,-9.03771l1.26319,-2.25127l-32.00005,-17.88345zM284.55232,217.10416c-1.34854,2.04795 -2.90813,3.95833 -4.65242,5.70722c-6.81932,6.81884 -15.8841,10.57361 -25.52838,10.57361c-9.64307,0 -18.70907,-3.75477 -25.52814,-10.57361c-6.82149,-6.81618 -10.57602,-15.88217 -10.57602,-25.52693c0,-9.64452 3.75429,-18.70931 10.57578,-25.52838c6.81908,-6.81786 15.88507,-10.57215 25.52814,-10.57215c9.64428,0 18.70907,3.75429 25.52838,10.57215c1.7443,1.74913 3.30389,3.66097 4.65242,5.70867l-35.46858,19.81971zM256.94794,184.39189c2.0656,0 4.01152,-0.80482 5.46933,-2.26601c3.01837,-3.01837 3.01837,-7.92465 0,-10.94325c-1.45781,-1.45878 -3.40374,-2.26239 -5.46933,-2.26239c-2.0656,0 -4.00789,0.80361 -5.46909,2.26601c-3.01499,3.01499 -3.01499,7.92126 0,10.93963c1.46095,1.46119 3.4035,2.26601 5.46909,2.26601zM255.12749,174.8315c0.48715,-0.48715 1.13313,-0.75598 1.82021,-0.75598c0.69095,0 1.33669,0.26884 1.82383,0.75598c1.005,1.005 1.005,2.6405 0,3.64549c-0.48715,0.48715 -1.13289,0.75477 -1.82383,0.75477c-0.68732,0 -1.33331,-0.26763 -1.82021,-0.75477c-1.00862,-1.005 -1.00862,-2.6405 0,-3.64549zM300.78842,186.96808c-5.68836,0 -10.31541,4.62801 -10.31541,10.31637c0,5.68861 4.62704,10.31517 10.31541,10.31517c5.68619,0 10.3125,-4.62656 10.3125,-10.31517c0,-5.68836 -4.62656,-10.31637 -10.3125,-10.31637zM326.57355,186.96808c-5.68619,0 -10.3125,4.62801 -10.3125,10.31637c0,5.68861 4.62656,10.31517 10.3125,10.31517c5.68836,0 10.31541,-4.62656 10.31541,-10.31517c0,-5.68836 -4.62704,-10.31637 -10.31541,-10.31637zM300.78842,202.4395c-2.84454,0 -5.16012,-2.31098 -5.16012,-5.15504c0,-0.52873 0.08317,-1.03811 0.22991,-1.52164c0.12572,0.27827 0.29881,0.53912 0.52607,0.76541c1.00765,1.00983 2.6405,1.00983 3.64816,0c1.00476,-1.00717 1.00476,-2.64026 0,-3.64405c-0.22991,-0.23112 -0.49053,-0.40422 -0.7659,-0.5297c0.47869,-0.14675 0.99339,-0.22628 1.52188,-0.22628c2.84164,0 5.1577,2.31195 5.1577,5.15626c0,2.8443 -2.31606,5.15504 -5.1577,5.15504zM326.57355,202.4395c-2.84406,0 -5.1548,-2.31098 -5.1548,-5.15504c0,-0.52873 0.07784,-1.03811 0.22991,-1.52164c0.1233,0.27827 0.29833,0.53912 0.52365,0.76541c1.00959,1.00983 2.6405,1.00983 3.64525,0c1.00959,-1.00717 1.00959,-2.64026 0,-3.64405c-0.22532,-0.23112 -0.48593,-0.40422 -0.76299,-0.5297c0.4811,-0.14675 0.99073,-0.22628 1.51897,-0.22628c2.84454,0 5.16012,2.31195 5.16012,5.15626c0,2.8443 -2.31557,5.15504 -5.16012,5.15504zM226.00366,197.28446c0,-0.66121 -0.24998,-1.31783 -0.75622,-1.82505c-1.00476,-1.00378 -2.63663,-1.00378 -3.64525,0c-0.50238,0.50721 -0.75502,1.16359 -0.75502,1.82505c0,8.9572 3.48642,17.37382 9.81738,23.70455c6.33435,6.3329 14.75097,9.81956 23.70672,9.81956c0.07954,0 0.15884,-0.00242 0.24176,-0.00242c0.68031,0.01427 1.36401,-0.23475 1.88089,-0.75115c1.00959,-1.00959 1.00959,-2.6405 0,-3.65009c-0.50262,-0.50238 -1.16262,-0.75598 -1.82045,-0.75598v-0.0029c-0.10178,0.0029 -0.2038,0.0029 -0.3022,0.0029c-7.57748,0 -14.70117,-2.94874 -20.05784,-8.30542c-5.35981,-5.35691 -8.30977,-12.48157 -8.30977,-20.05905z"
      ></path>
    </g>
    <path
      fill="none"
      d="M65,307.73645v-105.91364c0,-1.72281 0.60919,-3.19358 1.82756,-4.41231c1.21843,-1.21813 2.68917,-1.82719 4.41222,-1.82719l137.15516,0l-0.03628,1.59391l0.00363,0.32223l0.06732,1.4859h-137.18983c-1.89152,0 -2.83728,0.94582 -2.83728,2.83746v105.91364c0,1.89103 0.94576,2.83655 2.83728,2.83655h407.52072c1.89103,0 2.83655,-0.94552 2.83655,-2.83655v-105.91364c0,-1.89164 -0.94552,-2.83746 -2.83655,-2.83746l-137.25348,0l0.08695,-0.53282l0.04357,-0.95127l-0.07625,-1.08924l-0.15464,-0.82873h137.35385c1.72281,0 3.19328,0.60906 4.4114,1.82719c1.21873,1.21873 1.8281,2.6895 1.8281,4.41231v105.91364c0,1.72281 -0.60937,3.19328 -1.8281,4.4114c-1.21813,1.21873 -2.6886,1.8281 -4.4114,1.8281h-407.52072c-1.72311,0 -3.19385,-0.60937 -4.41222,-1.8281c-1.21837,-1.21813 -1.82756,-2.6886 -1.82756,-4.4114z"
      fill-rule="nonzero"></path>
  </g>
</svg>
